# Blender v2.80 (sub 75) OBJ File: 'pyramid.blend'
# www.blender.org
mtllib pyramid.mtl
o Cube_Cube.002
v -10.000000 0.000000 10.000000
v -9.000000 1.000000 9.000000
v -10.000000 0.000000 -10.000000
v -9.000000 1.000000 -9.000000
v 10.000000 0.000000 10.000000
v 9.000000 1.000000 9.000000
v 10.000000 0.000000 -10.000000
v 9.000000 1.000000 -9.000000
v -10.000000 1.000000 0.000000
v -10.000000 1.000000 -10.000000
v 10.000000 1.000000 -10.000000
v 10.000000 1.000000 10.000000
v -8.000000 2.000000 8.000000
v -8.000000 2.000000 -8.000000
v 8.000000 2.000000 -8.000000
v 8.000000 2.000000 8.000000
v -9.000000 2.000000 9.000000
v -9.000000 2.000000 -9.000000
v 9.000000 2.000000 -9.000000
v 9.000000 2.000000 9.000000
v -7.000000 3.000000 7.000000
v -7.000000 3.000000 -7.000000
v 7.000000 3.000000 -7.000000
v 7.000000 3.000000 7.000000
v -8.000000 3.000000 8.000000
v -8.000000 3.000000 -8.000000
v 8.000000 3.000000 -8.000000
v 8.000000 3.000000 8.000000
v -6.000000 4.000000 6.000000
v -6.000000 4.000000 -6.000000
v 6.000000 4.000000 -6.000000
v 6.000000 4.000000 6.000000
v -7.000000 4.000000 7.000000
v -7.000000 4.000000 -7.000000
v 7.000000 4.000000 -7.000000
v 7.000000 4.000000 7.000000
v -5.000000 5.000000 5.000000
v -5.000000 5.000000 -5.000000
v 5.000000 5.000000 -5.000000
v 5.000000 5.000000 5.000000
v -6.000000 5.000000 6.000000
v -6.000000 5.000000 -6.000000
v 6.000000 5.000000 -6.000000
v 6.000000 5.000000 6.000000
v -4.000000 6.000000 4.000000
v -4.000000 6.000000 -4.000000
v 4.000000 6.000000 -4.000000
v 4.000000 6.000000 4.000000
v -5.000000 6.000000 5.000000
v -5.000000 6.000000 -5.000000
v 5.000000 6.000000 -5.000000
v 5.000000 6.000000 5.000000
v -2.500000 7.000000 2.500000
v -2.500000 7.000000 -2.500000
v 2.500000 7.000000 -2.500000
v 2.500000 7.000000 2.500000
v -4.000000 7.000000 4.000000
v -4.000000 7.000000 -4.000000
v 4.000000 7.000000 -4.000000
v 4.000000 7.000000 4.000000
v -2.500000 10.000000 2.500000
v -2.500000 10.000000 -2.500000
v 2.500000 10.000000 -2.500000
v 2.500000 10.000000 2.500000
v -10.000000 0.000000 -10.000000
v -10.000000 1.000000 -10.000000
v -10.000000 0.000000 10.000000
v -10.000000 1.000000 10.000000
v -9.000000 1.000000 -9.000000
v -9.000000 1.000000 9.000000
v -9.000000 2.000000 -9.000000
v -9.000000 2.000000 9.000000
v -8.000000 2.000000 -8.000000
v -8.000000 2.000000 8.000000
v -8.000000 3.000000 -8.000000
v -8.000000 3.000000 8.000000
v -7.000000 3.000000 -7.000000
v -7.000000 3.000000 7.000000
v -7.000000 4.000000 -7.000000
v -7.000000 4.000000 7.000000
v -6.000000 4.000000 -6.000000
v -6.000000 4.000000 6.000000
v -6.000000 5.000000 -6.000000
v -6.000000 5.000000 6.000000
v -5.000000 5.000000 -5.000000
v -5.000000 5.000000 5.000000
v -5.000000 6.000000 -5.000000
v -5.000000 6.000000 5.000000
v -4.000000 6.000000 -4.000000
v -4.000000 6.000000 4.000000
v -4.000000 7.000000 -4.000000
v -4.000000 7.000000 4.000000
v -2.500000 7.000000 -2.500000
v -2.500000 7.000000 2.500000
v -2.500000 10.000000 -2.500000
v -2.500000 10.000000 2.500000
v -1.500000 1.000000 -10.000000
v -1.500000 0.000000 10.000000
v -1.500000 1.000000 -9.000000
v -1.500000 2.000000 -9.000000
v -1.500000 2.000000 -8.000000
v -1.500000 3.000000 -8.000000
v -1.500000 3.000000 -7.000000
v -1.500000 4.000000 -7.000000
v -1.500000 4.000000 -6.000000
v -1.500000 5.000000 -6.000000
v -1.500000 5.000000 -5.000000
v -1.500000 6.000000 -5.000000
v -1.500000 6.000000 -4.000000
v -1.500000 7.000000 -4.000000
v -1.500000 7.000000 -2.500000
v -1.500000 10.000000 -2.500000
v -1.500000 0.000000 -10.000000
v -1.500000 1.000000 10.000000
v -1.500000 1.000000 9.000000
v -1.500000 2.000000 9.000000
v -1.500000 2.000000 8.000000
v -1.500000 3.000000 8.000000
v -1.500000 3.000000 7.000000
v -1.500000 4.000000 7.000000
v -1.500000 4.000000 6.000000
v -1.500000 5.000000 6.000000
v -1.500000 5.000000 5.000000
v -1.500000 6.000000 5.000000
v -1.500000 6.000000 4.000000
v -1.500000 7.000000 4.000000
v -1.500000 7.000000 2.500000
v -1.500000 10.000000 2.500000
v 1.500000 1.000000 -10.000000
v 1.500000 0.000000 10.000000
v 1.500000 1.000000 -9.000000
v 1.500000 2.000000 -9.000000
v 1.500000 2.000000 -8.000000
v 1.500000 3.000000 -8.000000
v 1.500000 3.000000 -7.000000
v 1.500000 4.000000 -7.000000
v 1.500000 4.000000 -6.000000
v 1.500000 5.000000 -6.000000
v 1.500000 5.000000 -5.000000
v 1.500000 6.000000 -5.000000
v 1.500000 6.000000 -4.000000
v 1.500000 7.000000 -4.000000
v 1.500000 7.000000 -2.500000
v 1.500000 10.000000 -2.500000
v 1.500000 0.000000 -10.000000
v 1.500000 1.000000 10.000000
v 1.500000 1.000000 9.000000
v 1.500000 2.000000 9.000000
v 1.500000 2.000000 8.000000
v 1.500000 3.000000 8.000000
v 1.500000 3.000000 7.000000
v 1.500000 4.000000 7.000000
v 1.500000 4.000000 6.000000
v 1.500000 5.000000 6.000000
v 1.500000 5.000000 5.000000
v 1.500000 6.000000 5.000000
v 1.500000 6.000000 4.000000
v 1.500000 7.000000 4.000000
v 1.500000 7.000000 2.500000
v 1.500000 10.000000 2.500000
v 2.500000 10.000000 0.000000
v -2.500000 10.000000 0.000000
v 0.000000 10.000000 2.500000
v -1.500000 10.000000 0.000000
v 0.000000 10.000000 -2.500000
v 1.500000 10.000000 0.000000
v 2.500000 10.000000 1.250000
v -2.500000 10.000000 1.250000
v -0.750000 10.000000 2.500000
v -1.500000 10.000000 1.250000
v 0.750000 10.000000 -2.500000
v 1.500000 10.000000 1.250000
v 2.500000 10.000000 -1.250000
v -2.500000 10.000000 -1.250000
v 0.750000 10.000000 2.500000
v -1.500000 10.000000 -1.250000
v -0.750000 10.000000 -2.500000
v 1.500000 10.000000 -1.250000
v 0.000000 10.000000 1.250000
v 0.000000 10.000000 -1.250000
v -0.750000 10.000000 -1.250000
v 0.750000 10.000000 -1.250000
v 0.750000 10.000000 1.250000
v -0.750000 10.000000 1.250000
v 2.500000 11.807170 -2.500000
v 2.500000 11.807170 1.250000
v 2.500000 11.807170 2.500000
v -2.500000 11.807170 2.500000
v -2.500000 11.807170 1.250000
v -1.500000 11.807170 -2.500000
v -1.500000 11.807170 1.250000
v -1.500000 11.807170 2.500000
v 1.500000 11.807170 2.500000
v 1.500000 11.807170 1.250000
v 1.500000 11.807170 -2.500000
v 2.500000 11.807170 -1.250000
v -2.500000 11.807170 -2.500000
v -2.500000 11.807170 -1.250000
v -1.500000 11.807170 -1.250000
v 1.500000 11.807170 -1.250000
v -1.500000 8.358935 -1.250000
v -1.500000 8.358935 0.000000
v 1.500000 8.358935 -1.250000
v 1.500000 8.358935 0.000000
v 0.000000 8.358935 -1.250000
v 0.000000 8.358935 0.000000
v 0.750000 8.358935 0.000000
v -0.750000 8.358935 0.000000
v -1.500000 8.358935 1.250000
v 1.500000 8.358935 1.250000
v 0.000000 8.358935 1.250000
v -0.750000 8.358935 -1.250000
v 0.750000 8.358935 -1.250000
v 0.750000 8.358935 1.250000
v -0.750000 8.358935 1.250000
vt 0.500000 0.000000
vt 0.625000 0.125000
vt 0.625000 0.250000
vt 0.500000 0.250000
vt 0.500000 0.375000
vt 0.625000 0.375000
vt 0.625000 0.500000
vt 0.500000 0.500000
vt 0.625000 0.750000
vt 0.500000 0.750000
vt 0.500000 1.000000
vt 0.625000 1.000000
vt 0.000000 0.000000
vt 0.375000 1.000000
vt 0.250000 0.500000
vt 0.250000 0.750000
vt 0.750000 0.750000
vt 0.625000 0.750000
vt 0.625000 0.750000
vt 0.750000 0.750000
vt 0.875000 0.750000
vt 0.875000 0.500000
vt 0.875000 0.500000
vt 0.875000 0.625000
vt 0.750000 0.500000
vt 0.625000 0.500000
vt 0.750000 0.500000
vt 0.875000 0.750000
vt 0.875000 0.750000
vt 0.625000 0.750000
vt 0.625000 0.500000
vt 0.625000 0.500000
vt 0.625000 0.750000
vt 0.875000 0.500000
vt 0.875000 0.500000
vt 0.875000 0.500000
vt 0.625000 0.500000
vt 0.875000 0.750000
vt 0.875000 0.750000
vt 0.875000 0.500000
vt 0.750000 0.500000
vt 0.750000 0.500000
vt 0.875000 0.750000
vt 0.875000 0.750000
vt 0.625000 0.750000
vt 0.625000 0.500000
vt 0.625000 0.500000
vt 0.625000 0.750000
vt 0.875000 0.750000
vt 0.875000 0.500000
vt 0.750000 0.750000
vt 0.750000 0.750000
vt 0.875000 0.500000
vt 0.875000 0.500000
vt 0.875000 0.750000
vt 0.875000 0.500000
vt 0.750000 0.500000
vt 0.750000 0.500000
vt 0.875000 0.750000
vt 0.875000 0.750000
vt 0.750000 0.750000
vt 0.625000 0.750000
vt 0.625000 0.750000
vt 0.750000 0.750000
vt 0.875000 0.750000
vt 0.875000 0.500000
vt 0.750000 0.750000
vt 0.750000 0.750000
vt 0.875000 0.500000
vt 0.875000 0.500000
vt 0.875000 0.750000
vt 0.875000 0.500000
vt 0.750000 0.500000
vt 0.625000 0.500000
vt 0.750000 0.500000
vt 0.875000 0.750000
vt 0.875000 0.750000
vt 0.875000 0.500000
vt 0.875000 0.750000
vt 0.875000 0.750000
vt 0.875000 0.500000
vt 0.875000 0.500000
vt 0.875000 0.500000
vt 0.875000 0.500000
vt 0.625000 0.500000
vt 0.875000 0.750000
vt 0.750000 0.500000
vt 0.625000 0.500000
vt 0.750000 0.500000
vt 0.625000 0.750000
vt 0.875000 0.750000
vt 0.875000 0.750000
vt 0.625000 0.750000
vt 0.625000 0.500000
vt 0.625000 0.500000
vt 0.625000 0.750000
vt 0.750000 0.750000
vt 0.625000 0.750000
vt 0.750000 0.750000
vt 0.875000 0.500000
vt 0.875000 0.500000
vt 0.625000 0.500000
vt 0.875000 0.750000
vt 0.875000 0.500000
vt 0.750000 0.500000
vt 0.750000 0.500000
vt 0.875000 0.750000
vt 0.875000 0.750000
vt 0.875000 0.500000
vt 0.875000 0.500000
vt 0.875000 0.500000
vt 0.875000 0.500000
vt 0.875000 0.750000
vt 0.875000 0.500000
vt 0.750000 0.750000
vt 0.750000 0.750000
vt 0.875000 0.500000
vt 0.875000 0.500000
vt 0.875000 0.750000
vt 0.750000 0.500000
vt 0.625000 0.500000
vt 0.750000 0.500000
vt 0.625000 0.750000
vt 0.875000 0.750000
vt 0.875000 0.750000
vt 0.875000 0.750000
vt 0.875000 0.750000
vt 0.875000 0.687500
vt 0.875000 0.625000
vt 0.875000 0.562500
vt 0.625000 0.500000
vt 0.625000 0.562500
vt 0.625000 0.625000
vt 0.625000 0.687500
vt 0.625000 0.750000
vt 0.750000 0.750000
vt 0.750000 0.750000
vt 0.750000 0.750000
vt 0.750000 0.750000
vt 0.750000 0.500000
vt 0.750000 0.500000
vt 0.750000 0.500000
vt 0.750000 0.500000
vt 0.750000 0.750000
vt 0.750000 0.750000
vt 0.750000 0.500000
vt 0.750000 0.500000
vt 0.750000 0.750000
vt 0.750000 0.750000
vt 0.750000 0.500000
vt 0.750000 0.500000
vt 0.750000 0.750000
vt 0.750000 0.750000
vt 0.750000 0.500000
vt 0.750000 0.500000
vt 0.750000 0.750000
vt 0.750000 0.750000
vt 0.750000 0.500000
vt 0.750000 0.500000
vt 0.750000 0.750000
vt 0.750000 0.750000
vt 0.750000 0.500000
vt 0.750000 0.500000
vt 0.750000 0.750000
vt 0.750000 0.750000
vt 0.875000 0.500000
vt 0.125000 0.500000
vt 0.125000 0.500000
vt 0.125000 0.750000
vt 0.125000 0.750000
vt 0.500000 0.875000
vt 0.625000 0.875000
vt 0.625000 0.250000
vt 0.500000 0.250000
vt 0.500000 0.875000
vt 0.625000 0.875000
vt 0.750000 0.750000
vt 0.750000 0.500000
vt 0.750000 0.500000
vt 0.750000 0.500000
vt 0.750000 0.500000
vt 0.750000 0.687500
vt 0.750000 0.687500
vt 0.750000 0.750000
vt 0.750000 0.750000
vt 0.750000 0.500000
vt 0.250000 0.500000
vt 0.250000 0.750000
vt 0.625000 0.375000
vt 0.500000 0.375000
vt 0.875000 0.750000
vt 0.875000 0.687500
vt 0.750000 0.750000
vt 0.750000 0.750000
vt 0.750000 0.562500
vt 0.750000 0.562500
vt 0.750000 0.500000
vt 0.750000 0.625000
vt 0.750000 0.687500
vt 0.750000 0.687500
vt 0.750000 0.687500
vt 0.750000 0.687500
vt 0.750000 0.687500
vt 0.750000 0.562500
vt 0.750000 0.562500
vt 0.750000 0.562500
vt 0.750000 0.562500
vt 0.750000 0.687500
vt 0.750000 0.750000
vt 0.750000 0.625000
vt 0.750000 0.687500
vt 0.750000 0.625000
vt 0.750000 0.562500
vt 0.750000 0.687500
vt 0.750000 0.687500
vt 0.750000 0.562500
vt 0.750000 0.562500
vt 0.750000 0.562500
vt 0.750000 0.625000
vt 0.750000 0.500000
vt 0.750000 0.562500
vt 0.750000 0.562500
vt 0.875000 0.500000
vt 0.875000 0.562500
vt 0.625000 0.500000
vt 0.625000 0.562500
vt 0.625000 0.687500
vt 0.750000 0.687500
vt 0.750000 0.750000
vt 0.625000 0.750000
vt 0.750000 0.625000
vt 0.750000 0.625000
vt 0.750000 0.625000
vt 0.000000 0.000000
vt 0.000000 0.000000
vt 0.000000 0.000000
vt 0.000000 0.000000
vt 0.000000 0.000000
vt 0.000000 0.000000
vt 0.000000 0.000000
vt 0.000000 0.000000
vt 0.000000 0.000000
vt 0.000000 0.000000
vt 0.000000 0.000000
vt 0.000000 0.000000
vt 0.000000 0.000000
vt 0.000000 0.000000
vt 0.000000 0.000000
vt 0.000000 0.000000
vt 0.000000 0.000000
vt 0.000000 0.000000
vt 0.000000 0.000000
vt 0.000000 0.000000
vt 0.000000 0.000000
vt 0.000000 0.000000
vt 0.000000 0.000000
vt 0.000000 0.000000
vt 0.000000 0.000000
vt 0.000000 0.000000
vt 0.000000 0.000000
vt 0.000000 0.000000
vt 0.000000 0.000000
vt 0.000000 0.000000
vt 0.000000 0.000000
vt 0.000000 0.000000
vt 0.000000 0.000000
vt 0.000000 0.000000
vt 0.000000 0.000000
vt 0.000000 0.000000
vt 0.000000 0.000000
vt 0.000000 0.000000
vt 0.000000 0.000000
vt 0.000000 0.000000
vt 0.000000 0.000000
vt 0.000000 0.000000
vt 0.000000 0.000000
vt 0.000000 0.000000
vt 0.000000 0.000000
vt 0.000000 0.000000
vt 0.000000 0.000000
vt 0.000000 0.000000
vt 0.000000 0.000000
vt 0.000000 0.000000
vt 0.000000 0.000000
vt 0.000000 0.000000
vn -1.0000 0.0000 0.0000
vn 0.0000 0.0000 -1.0000
vn 1.0000 0.0000 0.0000
vn 0.0000 -1.0000 0.0000
vn 0.0000 0.0000 1.0000
vn 0.0000 1.0000 0.0000
vn 0.0000 -0.7071 -0.7071
vn 0.0000 0.7071 -0.7071
usemtl Texture
s off
f 1/1/1 9/2/1 10/3/1 3/4/1
f 145/5/2 129/6/2 11/7/2 7/8/2
f 7/8/3 11/7/3 12/9/3 5/10/3
f 67/11/1 68/12/1 9/13/1 1/14/1
f 145/15/4 7/8/4 5/10/4 130/16/4
f 147/17/5 6/18/5 20/19/5 148/20/5
f 2/21/6 4/22/6 10/23/6 9/24/6
f 131/25/6 8/26/6 11/7/6 129/27/6
f 8/26/6 6/18/6 12/9/6 11/7/6
f 70/28/6 2/21/6 9/24/6 68/29/6
f 16/30/3 15/31/3 27/32/3 28/33/3
f 69/34/5 4/22/5 18/35/5 71/36/5
f 6/18/3 8/26/3 19/37/3 20/19/3
f 4/22/1 2/21/1 17/38/1 18/35/1
f 13/39/6 14/40/6 18/35/6 17/38/6
f 133/41/6 15/31/6 19/37/6 132/42/6
f 15/31/6 16/30/6 20/19/6 19/37/6
f 74/43/5 13/39/5 17/38/5 72/44/5
f 24/45/3 23/46/3 35/47/3 36/48/3
f 14/40/1 13/39/1 25/49/1 26/50/1
f 149/51/5 16/30/5 28/33/5 150/52/5
f 73/53/5 14/40/5 26/50/5 75/54/5
f 21/55/6 22/56/6 26/50/6 25/49/6
f 135/57/6 23/46/6 27/32/6 134/58/6
f 23/46/6 24/45/6 28/33/6 27/32/6
f 78/59/5 21/55/5 25/49/5 76/60/5
f 153/61/5 32/62/5 44/63/5 154/64/5
f 22/56/1 21/55/1 33/65/1 34/66/1
f 151/67/5 24/45/5 36/48/5 152/68/5
f 77/69/5 22/56/5 34/66/5 79/70/5
f 29/71/6 30/72/6 34/66/6 33/65/6
f 137/73/6 31/74/6 35/47/6 136/75/6
f 31/74/6 32/62/6 36/48/6 35/47/6
f 82/76/5 29/71/5 33/65/5 80/77/5
f 38/78/1 37/79/1 49/80/1 50/81/1
f 81/82/5 30/72/5 42/83/5 83/84/5
f 32/62/3 31/74/3 43/85/3 44/63/3
f 30/72/1 29/71/1 41/86/1 42/83/1
f 37/79/6 38/78/6 42/83/6 41/86/6
f 139/87/6 39/88/6 43/85/6 138/89/6
f 39/88/6 40/90/6 44/63/6 43/85/6
f 86/91/5 37/79/5 41/86/5 84/92/5
f 48/93/3 47/94/3 59/95/3 60/96/3
f 155/97/5 40/90/5 52/98/5 156/99/5
f 85/100/5 38/78/5 50/81/5 87/101/5
f 40/90/3 39/88/3 51/102/3 52/98/3
f 45/103/6 46/104/6 50/81/6 49/80/6
f 141/105/6 47/94/6 51/102/6 140/106/6
f 47/94/6 48/93/6 52/98/6 51/102/6
f 90/107/5 45/103/5 49/80/5 88/108/5
f 93/109/5 54/110/5 62/111/5 95/112/5
f 46/104/1 45/103/1 57/113/1 58/114/1
f 157/115/5 48/93/5 60/96/5 158/116/5
f 89/117/5 46/104/5 58/114/5 91/118/5
f 53/119/6 54/110/6 58/114/6 57/113/6
f 143/120/6 55/121/6 59/95/6 142/122/6
f 55/121/6 56/123/6 60/96/6 59/95/6
f 94/124/5 53/119/5 57/113/5 92/125/5
f 95/112/5 62/111/5 61/126/5 96/127/5 168/128/5 162/129/5 174/130/5
f 56/123/3 55/121/3 63/131/3 173/132/3 161/133/3 167/134/3 64/135/3
f 54/110/1 53/119/1 61/126/1 62/111/1
f 159/136/5 56/123/5 64/135/5 160/137/5
f 53/119/5 94/124/5 96/127/5 61/126/5
f 127/138/6 94/124/6 92/125/6 126/139/6
f 54/110/5 93/109/5 91/118/5 58/114/5
f 109/140/2 89/117/2 91/118/2 110/141/2
f 45/103/5 90/107/5 92/125/5 57/113/5
f 111/142/2 93/109/2 95/112/2 112/143/2
f 125/144/6 90/107/6 88/108/6 124/145/6
f 46/104/5 89/117/5 87/101/5 50/81/5
f 107/146/2 85/100/2 87/101/2 108/147/2
f 37/79/5 86/91/5 88/108/5 49/80/5
f 123/148/6 86/91/6 84/92/6 122/149/6
f 38/78/5 85/100/5 83/84/5 42/83/5
f 105/150/2 81/82/2 83/84/2 106/151/2
f 121/152/6 82/76/6 80/77/6 120/153/6
f 30/72/5 81/82/5 79/70/5 34/66/5
f 103/154/2 77/69/2 79/70/2 104/155/2
f 21/55/5 78/59/5 80/77/5 33/65/5
f 29/71/5 82/76/5 84/92/5 41/86/5
f 119/156/6 78/59/6 76/60/6 118/157/6
f 22/56/5 77/69/5 75/54/5 26/50/5
f 101/158/2 73/53/2 75/54/2 102/159/2
f 13/39/5 74/43/5 76/60/5 25/49/5
f 117/160/6 74/43/6 72/44/6 116/161/6
f 14/40/5 73/53/5 71/36/5 18/35/5
f 99/162/2 69/34/2 71/36/2 100/163/2
f 115/164/6 70/28/6 68/29/6 114/165/6
f 4/22/5 69/34/5 66/166/5 10/23/5
f 2/21/5 70/28/5 72/44/5 17/38/5
f 3/167/5 65/168/5 67/169/5 1/170/5
f 98/171/5 114/172/5 68/12/5 67/11/5
f 3/4/5 10/3/5 66/173/5 65/174/5
f 130/175/5 146/176/5 114/172/5 98/171/5
f 147/17/6 115/164/6 114/165/6 146/177/6
f 131/25/2 99/162/2 100/163/2 132/42/2
f 149/51/6 117/160/6 116/161/6 148/20/6
f 133/41/2 101/158/2 102/159/2 134/58/2
f 151/67/6 119/156/6 118/157/6 150/52/6
f 135/57/2 103/154/2 104/155/2 136/75/2
f 153/61/6 121/152/6 120/153/6 152/68/6
f 137/73/2 105/150/2 106/151/2 138/89/2
f 155/97/6 123/148/6 122/149/6 154/64/6
f 139/87/2 107/146/2 108/147/2 140/106/2
f 157/115/6 125/144/6 124/145/6 156/99/6
f 143/120/2 111/142/2 112/143/2 177/178/2 165/179/2 171/180/2 144/181/2
f 141/105/2 109/140/2 110/141/2 142/122/2
f 159/136/6 127/138/6 126/139/6 158/116/6
f 184/182/6 170/183/6 128/184/6 169/185/6
f 94/124/5 127/138/5 128/184/5 96/127/5
f 93/109/6 111/142/6 110/141/6 91/118/6
f 90/107/5 125/144/5 126/139/5 92/125/5
f 89/117/6 109/140/6 108/147/6 87/101/6
f 86/91/5 123/148/5 124/145/5 88/108/5
f 85/100/6 107/146/6 106/151/6 83/84/6
f 81/82/6 105/150/6 104/155/6 79/70/6
f 78/59/5 119/156/5 120/153/5 80/77/5
f 82/76/5 121/152/5 122/149/5 84/92/5
f 77/69/6 103/154/6 102/159/6 75/54/6
f 74/43/5 117/160/5 118/157/5 76/60/5
f 73/53/6 101/158/6 100/163/6 71/36/6
f 69/34/6 99/162/6 97/186/6 66/166/6
f 70/28/5 115/164/5 116/161/5 72/44/5
f 65/168/4 113/187/4 98/188/4 67/169/4
f 65/174/2 66/173/2 97/189/2 113/190/2
f 168/128/1 96/127/1 188/191/1 189/192/1
f 56/123/6 159/136/6 158/116/6 60/96/6
f 47/94/2 141/105/2 142/122/2 59/95/2
f 55/121/2 143/120/2 144/181/2 63/131/2
f 48/93/6 157/115/6 156/99/6 52/98/6
f 39/88/2 139/87/2 140/106/2 51/102/2
f 40/90/6 155/97/6 154/64/6 44/63/6
f 31/74/2 137/73/2 138/89/2 43/85/2
f 32/62/6 153/61/6 152/68/6 36/48/6
f 23/46/2 135/57/2 136/75/2 35/47/2
f 24/45/6 151/67/6 150/52/6 28/33/6
f 15/31/2 133/41/2 134/58/2 27/32/2
f 16/30/6 149/51/6 148/20/6 20/19/6
f 8/26/2 131/25/2 132/42/2 19/37/2
f 6/18/6 147/17/6 146/177/6 12/9/6
f 5/10/5 12/9/5 146/176/5 130/175/5
f 127/138/5 159/136/5 160/137/5 175/193/5 163/194/5 169/185/5 128/184/5
f 111/142/6 143/120/6 142/122/6 110/141/6
f 125/144/5 157/115/5 158/116/5 126/139/5
f 109/140/6 141/105/6 140/106/6 108/147/6
f 123/148/5 155/97/5 156/99/5 124/145/5
f 107/146/6 139/87/6 138/89/6 106/151/6
f 105/150/6 137/73/6 136/75/6 104/155/6
f 119/156/5 151/67/5 152/68/5 120/153/5
f 121/152/5 153/61/5 154/64/5 122/149/5
f 103/154/6 135/57/6 134/58/6 102/159/6
f 117/160/5 149/51/5 150/52/5 118/157/5
f 101/158/6 133/41/6 132/42/6 100/163/6
f 99/162/6 131/25/6 129/27/6 97/186/6
f 115/164/5 147/17/5 148/20/5 116/161/5
f 113/187/4 145/15/4 130/16/4 98/188/4
f 113/190/2 97/189/2 129/6/2 145/5/2
f 144/181/1 178/195/1 200/196/1 195/197/1
f 178/195/6 166/198/6 161/133/6 173/132/6
f 183/199/6 179/200/6 163/194/6 175/193/6
f 183/199/2 172/201/2 210/202/2 214/203/2
f 181/204/5 176/205/5 201/206/5 212/207/5
f 128/184/3 170/183/3 191/208/3 192/209/3
f 164/210/3 170/183/3 209/211/3 202/212/3
f 165/179/6 177/178/6 181/204/6 180/213/6
f 177/178/6 112/143/6 176/205/6 181/204/6
f 184/182/2 179/200/2 211/214/2 215/215/2
f 144/181/6 171/180/6 182/216/6 178/195/6
f 171/180/6 165/179/6 180/213/6 182/216/6
f 172/201/6 183/199/6 175/193/6 160/137/6
f 178/195/5 182/216/5 213/217/5 203/218/5
f 172/201/1 166/198/1 204/219/1 210/202/1
f 174/130/6 162/129/6 164/210/6 176/205/6
f 176/205/3 112/143/3 190/220/3 199/221/3
f 166/198/6 172/201/6 167/134/6 161/133/6
f 179/200/6 184/182/6 169/185/6 163/194/6
f 180/213/5 181/204/5 212/207/5 205/222/5
f 176/205/3 164/210/3 202/212/3 201/206/3
f 162/129/6 168/128/6 170/183/6 164/210/6
f 191/208/6 189/192/6 188/191/6 192/209/6
f 190/220/6 197/223/6 198/224/6 199/221/6
f 185/225/6 195/197/6 200/196/6 196/226/6
f 186/227/6 194/228/6 193/229/6 187/230/6
f 64/135/3 167/134/3 186/227/3 187/230/3
f 64/135/5 187/230/5 193/229/5 160/137/5
f 112/143/2 95/112/2 197/223/2 190/220/2
f 173/132/3 63/131/3 185/225/3 196/226/3
f 167/134/2 172/201/2 194/228/2 186/227/2
f 174/130/5 176/205/5 199/221/5 198/224/5
f 144/181/2 195/197/2 185/225/2 63/131/2
f 178/195/5 173/132/5 196/226/5 200/196/5
f 95/112/1 174/130/1 198/224/1 197/223/1
f 172/201/1 160/137/1 193/229/1 194/228/1
f 96/127/5 128/184/5 192/209/5 188/191/5
f 170/183/2 168/128/2 189/192/2 191/208/2
f 213/217/6 205/222/6 206/231/6 207/232/6
f 212/207/6 201/206/6 202/212/6 208/233/6
f 205/222/6 212/207/6 208/233/6 206/231/6
f 203/218/6 213/217/6 207/232/6 204/219/6
f 204/219/6 207/232/6 214/203/6 210/202/6
f 207/232/6 206/231/6 211/214/6 214/203/6
f 206/231/6 208/233/6 215/215/6 211/214/6
f 208/233/6 202/212/6 209/211/6 215/215/6
f 182/216/5 180/213/5 205/222/5 213/217/5
f 170/183/2 184/182/2 215/215/2 209/211/2
f 179/200/2 183/199/2 214/203/2 211/214/2
f 166/198/1 178/195/1 203/218/1 204/219/1
f 114/172/7 126/139/7 158/116/7 146/176/7
f 97/186/8 110/141/8 142/122/8 129/27/8
f 99/234/3 97/235/3 110/236/3 109/237/3 108/238/3 107/239/3 106/240/3 105/241/3 104/242/3 103/243/3 102/244/3 101/245/3 100/246/3
f 141/247/3 140/248/3 139/249/3 138/250/3 137/251/3 136/252/3 135/253/3 134/254/3 133/255/3 132/256/3 131/257/3 129/258/3 142/259/3
f 115/260/3 116/261/3 117/262/3 118/263/3 119/264/3 120/265/3 121/266/3 122/267/3 123/268/3 124/269/3 125/270/3 126/271/3 114/272/3
f 158/273/1 157/274/1 156/275/1 155/276/1 154/277/1 153/278/1 152/279/1 151/280/1 150/281/1 149/282/1 148/283/1 147/284/1 146/285/1
